<?xml version="1.0" encoding="UTF-8"?><svg id="a" xmlns="http://www.w3.org/2000/svg" viewBox="0 0 1280 320"><path d="m11.1,297.39v-12.69l32.09-4.85h6.72l34.33,4.85v12.69H11.1Zm20.89,0L113.34,49.64h29.48l81.71,247.75h-52.61L107.74,91.05h6.34l-1.87,5.22-63.8,201.11h-16.42Zm36.19-78.73v-14.55h104.47v14.55h-104.47Zm68.65,78.73v-12.69l42.16-5.6h24.63l39.18,5.6v12.69h-105.97Z"/><path d="m278.26,297.39c.75-5.97,1.18-13.62,1.31-22.95.12-9.33.25-18.9.37-28.73.12-9.82.19-18.71.19-26.68v-15.67c0-10.69-.06-19.71-.19-27.05-.13-7.33-.44-14.86-.93-22.57l-23.88-4.85v-10.07l68.65-21.64,4.85,3.73-1.12,50.74v47.39c0,7.96.06,16.85.19,26.68.12,9.83.24,19.4.37,28.73.12,9.33.31,16.98.56,22.95h-50.37Zm-20.9,0v-11.94l34.33-6.34h22.76l34.33,6.34v11.94h-91.42Zm45.15-210.44c-7.22,0-13.5-2.43-18.84-7.28-5.35-4.85-8.02-11.13-8.02-18.84s2.67-13.93,8.02-18.66c5.35-4.72,11.62-7.09,18.84-7.09s13.86,2.37,19.22,7.09c5.35,4.73,8.02,10.95,8.02,18.66s-2.68,13.99-8.02,18.84c-5.35,4.85-11.75,7.28-19.22,7.28Z"/><path d="m439.45,302.61c-13.68,0-25.81-3.49-36.38-10.45-10.58-6.96-18.91-17.1-25-30.41-6.1-13.3-9.14-29.41-9.14-48.32,0-20.15,3.48-37.37,10.45-51.68,6.96-14.3,16.29-25.31,27.98-33.02,11.69-7.71,24.38-11.57,38.06-11.57,7.46,0,14.3,1.25,20.52,3.73,6.21,2.49,11.88,6.22,16.98,11.19,5.09,4.98,10.01,11.69,14.74,20.15h7.09l-3.73,15.3c-7.46-8.7-14.18-14.98-20.15-18.84-5.97-3.85-12.94-5.78-20.89-5.78-6.97,0-13.62,2.37-19.96,7.09-6.34,4.73-11.38,12.13-15.11,22.2-3.73,10.07-5.6,23.32-5.6,39.74,0,14.92,1.74,27.24,5.22,36.94,3.48,9.7,8.33,16.85,14.55,21.45,6.21,4.61,13.3,6.9,21.27,6.9s15.23-2.67,21.83-8.02c6.59-5.35,12.74-12.25,18.47-20.71l2.98,16.04h-6.34c-4.48,8.21-9.58,15.11-15.3,20.71-5.72,5.6-12.13,9.89-19.21,12.87-7.09,2.99-14.87,4.48-23.32,4.48Zm52.24-.75l-2.24-34.33v-115.67l1.12-4.1V56.73l-25.37-5.22v-10.82l67.91-16.42,5.6,3.36-1.49,64.55v189.92l21.27,3.36v11.94l-66.79,4.48Z"/><path d="m598.02,297.39c.5-5.97.8-13.62.93-22.95.12-9.33.24-18.9.37-28.73.12-9.82.19-18.71.19-26.68V56.73l-25-5.22v-10.82l67.91-16.42,5.6,3.36-1.49,64.55v66.04l.37,2.61v58.21c0,7.96.06,16.85.19,26.68.12,9.83.31,19.4.56,28.73.24,9.33.5,16.98.75,22.95h-50.37Zm-21.27,0v-11.94l34.7-6.34h22.01l33.58,6.34v11.94h-90.29Zm130.22,0c.5-5.97.87-13.55,1.12-22.76.25-9.2.37-18.71.37-28.54v-65.11c0-12.93-1.81-21.83-5.41-26.68-3.61-4.85-9.64-7.28-18.1-7.28-4.98,0-10.02,1.06-15.11,3.17-5.1,2.12-10.33,5.17-15.67,9.14-5.35,3.98-10.63,8.83-15.86,14.55l-2.99-14.92h4.48c6.47-9.45,13.3-17.16,20.52-23.13,7.21-5.97,14.67-10.57,22.39-13.81,7.71-3.23,15.79-4.85,24.25-4.85,15.17,0,27.17,4.91,36.01,14.74,8.83,9.83,13.25,25.44,13.25,46.83v40.3c0,8.21.06,17.23.19,27.05.12,9.83.31,19.34.56,28.54.25,9.21.62,16.79,1.12,22.76h-51.12Zm-20.15,0v-11.94l33.58-6.34h22.76l34.33,6.34v11.94h-90.67Z"/><path d="m843.53,302.61c-13.68,0-24.88-3.86-33.58-11.57-8.71-7.71-13.06-18.9-13.06-33.58,0-7.96,1.87-15.42,5.6-22.39,3.73-6.96,10.38-13.49,19.96-19.59,9.57-6.09,22.95-11.62,40.11-16.6,5.47-1.74,11.32-3.42,17.54-5.04,6.21-1.62,12.62-3.29,19.22-5.04,6.59-1.74,13.37-3.6,20.33-5.6v11.19c-9.21,2.74-17.72,5.35-25.56,7.84-7.83,2.49-14.37,4.61-19.59,6.34-8.21,2.99-14.62,6.53-19.22,10.63-4.61,4.1-7.9,8.65-9.89,13.62-1.99,4.98-2.98,10.45-2.98,16.42,0,9.46,2.3,16.42,6.9,20.89,4.6,4.48,10.38,6.72,17.35,6.72,4.23,0,8.08-.56,11.57-1.68,3.48-1.12,7.52-3.23,12.13-6.34,4.6-3.11,10.26-7.4,16.98-12.87l3.36,16.79h-13.06c-5.22,6.97-10.58,12.63-16.04,16.98-5.47,4.36-11.19,7.59-17.16,9.7-5.97,2.11-12.94,3.17-20.89,3.17Zm88.43-.37c-11.7,0-20.59-2.99-26.68-8.96-6.1-5.97-9.77-13.93-11.01-23.88v-91.79c0-11.94-.93-21.2-2.8-27.8-1.87-6.59-5.04-11.25-9.51-13.99-4.48-2.73-10.58-4.1-18.28-4.1-4.23,0-8.58.44-13.06,1.31-4.48.87-9.7,2.3-15.67,4.29l16.79-11.19-4.1,27.24c-.5,10.45-3.11,17.79-7.84,22.01-4.73,4.23-9.95,6.34-15.67,6.34s-10.39-1.43-13.99-4.29c-3.61-2.86-6.03-7.03-7.28-12.5,1.49-14.42,9.08-25.99,22.76-34.7,13.68-8.7,31.72-13.06,54.1-13.06,14.18,0,25.87,2.3,35.07,6.9,9.2,4.61,15.92,11.75,20.15,21.45,4.23,9.7,6.34,22.39,6.34,38.06v82.83c0,4.98.87,8.58,2.61,10.82,1.74,2.24,3.98,3.36,6.72,3.36,2.48,0,4.66-.62,6.53-1.87,1.87-1.24,4.04-3.48,6.53-6.72l6.72,4.85c-3.49,8.71-8.34,15.11-14.55,19.22-6.22,4.1-14.18,6.16-23.88,6.16Z"/><path d="m1002.85,297.39c.24-5.97.43-13.62.56-22.95.12-9.33.24-18.9.37-28.73.12-9.82.19-18.71.19-26.68v-35.82c0-5.47-.06-10.51-.19-15.11-.13-4.6-.32-9.39-.56-14.37l-23.88-4.85v-10.07l65.3-21.64,5.22,4.1,1.87,38.43v59.33c0,7.96.06,16.85.19,26.68.12,9.83.31,19.4.56,28.73.24,9.33.62,16.98,1.12,22.95h-50.74Zm-21.27,0v-11.94l34.33-6.34h22.76l33.58,6.34v11.94h-90.67Zm130.22,0c.5-5.97.8-13.55.93-22.76.12-9.2.25-18.71.37-28.54.12-9.82.19-18.84.19-27.05v-38.06c0-12.69-1.93-21.51-5.78-26.49-3.86-4.97-9.89-7.46-18.1-7.46-4.98,0-10.14.93-15.48,2.8-5.35,1.87-10.63,4.79-15.86,8.77-5.22,3.98-10.45,8.71-15.67,14.18l-1.87-14.93h4.85c6.47-8.7,13.12-16.1,19.96-22.2,6.84-6.09,14.24-10.69,22.2-13.81,7.96-3.11,16.04-4.66,24.25-4.66,15.17,0,27.11,4.91,35.82,14.74,8.7,9.83,13.06,25.44,13.06,46.83v40.3c0,8.21.06,17.23.19,27.05.12,9.83.24,19.34.37,28.54.12,9.21.43,16.79.93,22.76h-50.37Zm-20.52,0v-11.94l33.95-6.34h22.39l33.95,6.34v11.94h-90.29Z"/><path d="m1242.76,302.24c-8.21,0-15.05-2.8-20.52-8.4-5.47-5.6-8.21-12.37-8.21-20.33s2.73-14.74,8.21-20.33c5.47-5.6,12.31-8.4,20.52-8.4s15.05,2.8,20.52,8.4c5.47,5.6,8.21,12.38,8.21,20.33s-2.74,14.74-8.21,20.33c-5.47,5.6-12.31,8.4-20.52,8.4Z"/></svg>