<?xml version="1.0" encoding="UTF-8"?><svg id="a" xmlns="http://www.w3.org/2000/svg" viewBox="0 0 288 72"><path d="m2.12,66.06v-2.85l7.21-1.09h1.51l7.72,1.09v2.85H2.12Zm4.7,0L25.1,10.35h6.63l18.37,55.71h-11.83l-14.43-46.4h1.43l-.42,1.17-14.35,45.22h-3.69Zm8.14-17.7v-3.27h23.49v3.27H14.95Zm15.44,17.7v-2.85l9.48-1.26h5.54l8.81,1.26v2.85h-23.83Z"/><path d="m62.19,66.06c.17-1.34.27-3.06.29-5.16.03-2.1.06-4.25.08-6.46.03-2.21.04-4.21.04-6v-3.52c0-2.4-.01-4.43-.04-6.08-.03-1.65-.1-3.34-.21-5.08l-5.37-1.09v-2.27l15.44-4.87,1.09.84-.25,11.41v10.66c0,1.79.01,3.79.04,6,.03,2.21.05,4.36.08,6.46.03,2.1.07,3.82.13,5.16h-11.33Zm-4.7,0v-2.68l7.72-1.43h5.12l7.72,1.43v2.68h-20.56Zm10.15-47.32c-1.62,0-3.04-.55-4.24-1.64-1.2-1.09-1.8-2.5-1.8-4.24s.6-3.13,1.8-4.19c1.2-1.06,2.61-1.59,4.24-1.59s3.12.53,4.32,1.59c1.2,1.06,1.8,2.46,1.8,4.19s-.6,3.15-1.8,4.24c-1.2,1.09-2.64,1.64-4.32,1.64Z"/><path d="m98.43,67.23c-3.08,0-5.8-.78-8.18-2.35-2.38-1.57-4.25-3.84-5.62-6.84-1.37-2.99-2.06-6.61-2.06-10.86,0-4.53.78-8.4,2.35-11.62,1.56-3.22,3.66-5.69,6.29-7.42,2.63-1.73,5.48-2.6,8.56-2.6,1.68,0,3.22.28,4.61.84,1.4.56,2.67,1.4,3.82,2.52,1.15,1.12,2.25,2.63,3.31,4.53h1.59l-.84,3.44c-1.68-1.96-3.19-3.37-4.53-4.24-1.34-.87-2.91-1.3-4.7-1.3-1.57,0-3.06.53-4.49,1.59-1.43,1.06-2.56,2.73-3.4,4.99-.84,2.27-1.26,5.24-1.26,8.94,0,3.36.39,6.12,1.17,8.31.78,2.18,1.87,3.79,3.27,4.82,1.4,1.04,2.99,1.55,4.78,1.55s3.43-.6,4.91-1.8c1.48-1.2,2.87-2.75,4.15-4.66l.67,3.61h-1.43c-1.01,1.85-2.15,3.4-3.44,4.66-1.29,1.26-2.73,2.22-4.32,2.89-1.59.67-3.34,1.01-5.24,1.01Zm11.75-.17l-.5-7.72v-26.01l.25-.92V11.94l-5.71-1.17v-2.43l15.27-3.69,1.26.76-.34,14.51v42.7l4.78.75v2.68l-15.02,1.01Z"/><path d="m134.09,66.06c.11-1.34.18-3.06.21-5.16.03-2.1.06-4.25.08-6.46.03-2.21.04-4.21.04-6V11.94l-5.62-1.17v-2.43l15.27-3.69,1.26.76-.34,14.51v14.85l.08.59v13.09c0,1.79.01,3.79.04,6,.03,2.21.07,4.36.13,6.46.05,2.1.11,3.82.17,5.16h-11.33Zm-4.78,0v-2.68l7.8-1.43h4.95l7.55,1.43v2.68h-20.3Zm29.28,0c.11-1.34.2-3.05.25-5.12.06-2.07.08-4.21.08-6.42v-14.64c0-2.91-.41-4.91-1.22-6-.81-1.09-2.17-1.64-4.07-1.64-1.12,0-2.25.24-3.4.71-1.15.48-2.32,1.16-3.52,2.06-1.2.9-2.39,1.99-3.57,3.27l-.67-3.36h1.01c1.45-2.12,2.99-3.86,4.61-5.2,1.62-1.34,3.3-2.38,5.03-3.1,1.73-.73,3.55-1.09,5.45-1.09,3.41,0,6.11,1.1,8.1,3.31,1.99,2.21,2.98,5.72,2.98,10.53v9.06c0,1.85.01,3.87.04,6.08.03,2.21.07,4.35.13,6.42.05,2.07.14,3.78.25,5.12h-11.49Zm-4.53,0v-2.68l7.55-1.43h5.12l7.72,1.43v2.68h-20.39Z"/><path d="m189.29,67.23c-3.08,0-5.59-.87-7.55-2.6-1.96-1.73-2.94-4.25-2.94-7.55,0-1.79.42-3.47,1.26-5.03.84-1.57,2.33-3.03,4.49-4.41,2.15-1.37,5.16-2.61,9.02-3.73,1.23-.39,2.54-.77,3.94-1.13,1.4-.36,2.84-.74,4.32-1.13,1.48-.39,3.01-.81,4.57-1.26v2.52c-2.07.62-3.99,1.2-5.75,1.76-1.76.56-3.23,1.04-4.4,1.43-1.85.67-3.29,1.47-4.32,2.39-1.04.92-1.78,1.94-2.22,3.06-.45,1.12-.67,2.35-.67,3.69,0,2.13.52,3.69,1.55,4.7,1.03,1.01,2.33,1.51,3.9,1.51.95,0,1.82-.13,2.6-.38.78-.25,1.69-.73,2.73-1.43,1.03-.7,2.31-1.66,3.82-2.89l.75,3.78h-2.94c-1.17,1.57-2.38,2.84-3.61,3.82-1.23.98-2.52,1.71-3.86,2.18-1.34.47-2.91.71-4.7.71Zm19.88-.08c-2.63,0-4.63-.67-6-2.01-1.37-1.34-2.2-3.13-2.47-5.37v-20.64c0-2.68-.21-4.77-.63-6.25-.42-1.48-1.13-2.53-2.14-3.15-1.01-.61-2.38-.92-4.11-.92-.95,0-1.93.1-2.94.29-1.01.2-2.18.52-3.52.96l3.78-2.52-.92,6.12c-.11,2.35-.7,4-1.76,4.95-1.06.95-2.24,1.43-3.52,1.43s-2.34-.32-3.15-.96c-.81-.64-1.36-1.58-1.64-2.81.33-3.24,2.04-5.84,5.12-7.8,3.08-1.96,7.13-2.94,12.17-2.94,3.19,0,5.82.52,7.89,1.55,2.07,1.04,3.58,2.64,4.53,4.82.95,2.18,1.43,5.03,1.43,8.56v18.62c0,1.12.2,1.93.59,2.43.39.5.89.75,1.51.75.56,0,1.05-.14,1.47-.42.42-.28.91-.78,1.47-1.51l1.51,1.09c-.78,1.96-1.88,3.4-3.27,4.32-1.4.92-3.19,1.38-5.37,1.38Z"/><path d="m225.12,66.06c.06-1.34.1-3.06.13-5.16.03-2.1.06-4.25.08-6.46.03-2.21.04-4.21.04-6v-8.05c0-1.23-.01-2.36-.04-3.4-.03-1.03-.07-2.11-.13-3.23l-5.37-1.09v-2.27l14.68-4.87,1.17.92.42,8.64v13.34c0,1.79.01,3.79.04,6,.03,2.21.07,4.36.13,6.46.05,2.1.14,3.82.25,5.16h-11.41Zm-4.78,0v-2.68l7.72-1.43h5.12l7.55,1.43v2.68h-20.39Zm29.28,0c.11-1.34.18-3.05.21-5.12.03-2.07.06-4.21.08-6.42.03-2.21.04-4.24.04-6.08v-8.56c0-2.85-.43-4.84-1.3-5.96-.87-1.12-2.22-1.68-4.07-1.68-1.12,0-2.28.21-3.48.63-1.2.42-2.39,1.08-3.57,1.97-1.17.9-2.35,1.96-3.52,3.19l-.42-3.36h1.09c1.45-1.96,2.95-3.62,4.49-4.99,1.54-1.37,3.2-2.4,4.99-3.1,1.79-.7,3.61-1.05,5.45-1.05,3.41,0,6.1,1.1,8.05,3.31,1.96,2.21,2.94,5.72,2.94,10.53v9.06c0,1.85.01,3.87.04,6.08.03,2.21.05,4.35.08,6.42.03,2.07.1,3.78.21,5.12h-11.33Zm-4.62,0v-2.68l7.63-1.43h5.03l7.63,1.43v2.68h-20.3Z"/><path d="m279.06,67.15c-1.85,0-3.38-.63-4.62-1.89s-1.85-2.78-1.85-4.57.62-3.31,1.85-4.57c1.23-1.26,2.77-1.89,4.62-1.89s3.38.63,4.61,1.89c1.23,1.26,1.85,2.78,1.85,4.57s-.62,3.31-1.85,4.57c-1.23,1.26-2.77,1.89-4.61,1.89Z"/></svg>